<?xml version="1.0" standalone="no"?> <!DOCTYPE svg PUBLIC "-//W3C//DTD SVG 1.0//EN" "http://www.w3.org/TR/2001/REC-SVG-20010904/DTD/svg10.dtd" > <svg xmlns="http://www.w3.org/2000/svg" width="100%" height="100%">
<defs >
<font id="JesayaFree-Regular" horiz-adv-x="423" ><font-face
    font-family="Jesaya Free"
    units-per-em="1000"
    panose-1="2 0 5 6 4 0 0 2 0 4"
    ascent="957"
    descent="-219"
    alphabetic="0" />
<missing-glyph horiz-adv-x="364" d="M33 0V666H298V0H33ZM66 33H265V633H66V33Z" />
<glyph unicode=" " glyph-name="space" horiz-adv-x="249" />
<glyph unicode="!" glyph-name="exclam" horiz-adv-x="181" d="M129 216H52L38 765H143L129 216ZM129 0H53V104H129V0Z" />
<glyph unicode="&quot;" glyph-name="quotedbl" horiz-adv-x="252" d="M218 526H161L153 796H225L218 526ZM88 526H34L24 796H98L88 526Z" />
<glyph unicode="#" glyph-name="numbersign" horiz-adv-x="473" d="M412 706L378 520H440V470H368L334 279H412V230H324L282 0H234V44L267 230H145L103 0H55V44L88 230H33V279H98L133 470H61V520H143L184 742H233V706L199 520H322L363 742H412V706ZM189 470L155
279H277L312 470H189Z" />
<glyph unicode="$" glyph-name="dollar" horiz-adv-x="434" d="M240 648Q288 645 325 624T383 566V514H311Q303 548 276 565T215 583Q198 583 182 580T152 569T130 547T121 511Q121 478 142 459T194 426T263 400T331 368T384 318T405 237Q405 173 367 129T240
77V0H185V76Q133 79 91 107T29 180V232H101Q110 192 139 171T206 149Q266 149 293 173T320 239Q320 274 299 293T247 326T178 351T110 381T57 428T36 508Q36 571 70 606T185 647V742H240V648Z" />
<glyph unicode="%" glyph-name="percent" horiz-adv-x="707" d="M300 543Q300 495 296 458T277 394T236 354T168 340Q126 340 101 353T61 393T42 457T37 543V557Q37 602 43 637T64 696T104 734T168 747Q207 747 232 734T273 697T294 637T300 557V543ZM669 193Q669
145 665 108T646 44T605 4T537 -10Q495 -10 470 3T430 43T411 107T406 193V207Q406 252 412 287T433 346T473 384T537 397Q576 397 601 384T642 347T663 287T669 207V193ZM242 557Q242 623 227 657T168 691Q124 691 110 658T95 557V536Q95 466 108 430T168 394Q212
394 227 427T242 522V557ZM611 207Q611 273 596 307T537 341Q493 341 479 308T464 207V186Q464 116 477 80T537 44Q581 44 596 77T611 172V207ZM562 712L199 0H148V29L511 742H562V712Z" />
<glyph unicode="&amp;" glyph-name="ampersand" horiz-adv-x="587" d="M533 416Q533 344 520 274T477 146L557 47V0H506L435 89Q401 44 354 17T240 -10Q187 -10 149 5T85 48T48 112T36 195Q36 237 46 269T74 327T119 375T177 417Q145 462 125 504T105 595Q105
627 114 655T140 705T185 739T248 752Q317 752 354 716T391 608Q391 568 381 538T353 483T313 441T266 406L425 207Q448 258 456 313T467 416H533ZM216 365Q172 336 143 298T114 203Q114 137 145 100T241 62Q292 62 328 85T389 144L216 365ZM227 456Q246 469 264
483T296 516T318 555T327 604Q327 692 248 692Q210 692 190 666T170 599Q170 564 185 529T227 456Z" />
<glyph unicode="&apos;" glyph-name="quotesingle" horiz-adv-x="125" d="M89 526H34L24 796H98L89 526Z" />
<glyph unicode="(" glyph-name="parenleft" horiz-adv-x="314" d="M270 781Q228 755 201 714T158 619T136 496T130 346Q130 262 137 192T162 69T209 -22T282 -80L252 -130Q200 -108 164 -70T106 27T73 164T63 346Q63 443 71 520T99 657T152 759T237 831L270 781Z" />
<glyph unicode=")" glyph-name="parenright" horiz-adv-x="314" d="M76 831Q127 802 160 759T214 657T242 521T250 346Q250 243 240 164T208 27T149 -69T61 -130L31 -80Q74 -60 103 -23T150 68T175 192T183 346Q183 427 177 495T156 618T113 714T43 781L76 831Z" />
<glyph unicode="*" glyph-name="asterisk" d="M371 665L250 634L329 540L277 503L215 605L149 505L98 542L177 634L59 666L78 721L192 675L182 796H247L237 674L353 720L371 665Z" />
<glyph unicode="+" glyph-name="plus" horiz-adv-x="493" d="M454 331H276V153H212V331H36V395H212V572H276V395H454V331Z" />
<glyph unicode="," glyph-name="comma" horiz-adv-x="171" d="M131 68Q131 39 127 13T116 -35T101 -71T87 -94H56V104H131V68Z" />
<glyph unicode="-" glyph-name="hyphen" horiz-adv-x="278" d="M255 286H24V339H255V286Z" />
<glyph unicode="." glyph-name="period" horiz-adv-x="185" d="M132 0H55V104H132V0Z" />
<glyph unicode="/" glyph-name="slash" horiz-adv-x="319" d="M302 716L70 -25H18V0L249 742H302V716Z" />
<glyph unicode="0" glyph-name="zero" horiz-adv-x="503" d="M460 355Q460 260 455 192T428 78T365 12T251 -10Q179 -10 138 11T75 78T48 191T42 355V387Q42 481 47 550T74 664T137 730T251 752Q323 752 364 731T427 664T454 550T460 387V355ZM366 378Q366 462
362 517T346 607T311 655T251 669Q210 669 187 654T153 605T139 514T136 377V361Q136 281 139 226T153 137T188 88T251 73Q291 73 314 88T348 136T363 225T366 360V378Z" />
<glyph unicode="1" glyph-name="one" horiz-adv-x="267" d="M218 0H125V657L20 637V716L158 744H218V0Z" />
<glyph unicode="2" glyph-name="two" horiz-adv-x="461" d="M44 586V644Q62 677 83 698T127 731T176 748T229 753Q281 753 317 738T374 695T405 628T415 540Q415 479 396 426T347 327Q331 301 308 270T257 205T202 140T147 83H423V0H39V78Q86 123 138 185T236
311Q284 377 304 433T325 536Q325 600 303 635T223 670Q188 670 161 648T118 586H44Z" />
<glyph unicode="3" glyph-name="three" horiz-adv-x="479" d="M56 583V641Q89 703 137 728T240 753Q291 753 325 738T382 697T413 635T423 558Q423 533 419 508T404 461T376 423T334 398Q364 389 384 371T417 327T435 274T441 216Q441 170 428 129T389 57T321
8T223 -10Q194 -10 166 -1T112 25T68 68T37 125V185H112Q122 131 156 105T229 79Q290 79 321 116T352 217Q352 244 348 269T331 313T297 344T242 356H186V427H241Q269 427 287 437T317 463T333 501T338 545Q338 569 333 592T315 632T283 659T234 670Q204 670 175
649T130 583H56Z" />
<glyph unicode="4" glyph-name="four" horiz-adv-x="454" d="M387 279H431V203H387V0H299V203H20V267L298 742H387V279ZM107 279H299V602L107 279Z" />
<glyph unicode="5" glyph-name="five" horiz-adv-x="477" d="M406 656H147L133 423Q154 441 170 453T202 473T237 484T283 488Q317 488 346 477T398 437T432 363T444 247Q444 193 431 146T392 65T324 10T225 -10Q192 -10 161 1T104 31T62 75T40 128V185H115Q119
159 130 140T158 107T193 86T231 79Q294 79 324 125T355 247Q355 293 349 324T330 374T300 401T260 409Q228 409 192 390T111 323L51 348L74 742H406V656Z" />
<glyph unicode="6" glyph-name="six" horiz-adv-x="498" d="M428 587H354Q340 632 314 651T256 670Q214 670 190 650T153 595T137 514T133 413Q178 448 215 462T287 476Q375 476 417 424T459 257V235Q459 179 450 134T418 56T354 7T251 -11Q174 -11 132 15T70
90T46 206T42 357Q42 438 46 510T72 636T136 721T258 752Q310 752 353 729T428 647V587ZM365 253Q365 335 337 368T251 401Q219 401 188 386T135 345V312Q135 256 138 212T152 136T187 89T250 73Q317 73 341 114T365 243V253Z" />
<glyph unicode="7" glyph-name="seven" horiz-adv-x="432" d="M411 680Q378 618 347 535T289 361T238 176T199 0H109V54Q124 124 145 202T192 359T250 514T318 658H31V742H411V680Z" />
<glyph unicode="8" glyph-name="eight" horiz-adv-x="496" d="M330 396Q352 387 375 370T416 328T445 274T457 211Q457 151 445 109T407 40T342 1T248 -11Q139 -11 89 39T39 207Q39 242 49 273T76 330T115 372T163 398Q114 411 86 453T57 559Q57 604 66 639T97
700T155 739T248 753Q300 753 336 740T395 703T428 644T438 566Q438 500 410 456T330 396ZM245 368Q222 363 201 350T164 317T139 271T129 215Q129 134 157 101T246 67Q309 67 336 101T363 213Q363 245 353 271T327 317T289 350T245 368ZM248 421Q308 433 329 470T351
570Q351 617 329 647T249 678Q191 678 169 648T147 570Q147 508 168 471T248 421Z" />
<glyph unicode="9" glyph-name="nine" horiz-adv-x="498" d="M39 506Q39 562 48 607T80 685T144 734T247 752Q323 752 365 726T428 651T452 534T456 384Q456 303 452 231T426 105T362 20T240 -11Q186 -11 144 11T70 94V154H144Q158 109 184 90T242 71Q284 71 308
91T345 146T361 227T365 328Q320 293 283 279T211 265Q123 265 81 317T39 484V506ZM363 429Q363 485 360 529T346 604T311 651T248 668Q214 668 192 658T157 626T139 573T133 498V488Q133 447 140 419T161 373T196 348T247 340Q279 340 310 355T363 396V429Z" />
<glyph unicode=":" glyph-name="colon" horiz-adv-x="187" d="M132 0H56V104H132V0ZM132 445H56V549H132V445Z" />
<glyph unicode=";" glyph-name="semicolon" horiz-adv-x="185" d="M133 445H56V549H133V445ZM134 68Q134 39 130 13T119 -35T105 -71T91 -94H59V104H134V68Z" />
<glyph unicode="&lt;" glyph-name="less" horiz-adv-x="432" d="M386 541L123 355L386 170V98L43 332V378L386 613V541Z" />
<glyph unicode="=" glyph-name="equal" horiz-adv-x="534" d="M491 234H53V297H491V234ZM491 448H53V511H491V448Z" />
<glyph unicode="&gt;" glyph-name="greater" horiz-adv-x="437" d="M390 332L47 98V170L311 355L47 541V613L390 378V332Z" />
<glyph unicode="?" glyph-name="question" horiz-adv-x="416" d="M25 600V655Q53 715 96 743T212 771Q261 771 295 758T350 722T380 669T390 607Q390 566 378 536T346 483T304 440T263 401T231 361T218 314Q218 272 224 229H156Q146 252 142 275T137 319Q137 354
149 379T179 426T218 465T257 503T287 546T299 603Q299 636 279 660T210 684Q159 684 135 663T97 600H25ZM226 0H149V104H226V0Z" />
<glyph unicode="@" glyph-name="at" horiz-adv-x="569" d="M523 105H477Q473 113 471 122T467 142Q436 121 413 112T367 102Q311 102 280 115T232 154T211 216T207 298Q207 352 210 394T230 465T278 510T369 526Q380 526 388 525T406 522T429 515T464 502Q462
538 454 564T427 607T378 632T303 640Q237 640 198 626T137 576T110 478T103 318Q103 201 108 127T133 11T196 -46T313 -62Q376 -62 417 -42T484 7H522V-43Q487 -78 437 -100T314 -123Q215 -123 160 -101T79 -28T47 109T42 320Q42 428 49 500T84 617T162 680T303
699Q366 699 407 687T474 650T510 584T523 489V105ZM461 450Q446 457 436 461T416 467T397 469T374 470Q338 470 318 461T287 433T273 386T270 320Q270 280 272 249T286 197T319 164T379 153Q389 153 396 154T413 158T433 167T461 183V450Z" />
<glyph unicode="A" glyph-name="A" horiz-adv-x="484" d="M463 72V0H377L342 145H137L105 0H21V72L183 742H296L463 72ZM149 224H330L238 615L149 224Z" />
<glyph unicode="B" glyph-name="B" horiz-adv-x="493" d="M427 517Q427 482 414 452T373 410Q393 405 410 391T439 356T457 312T464 262V214Q464 166 456 127T425 59T364 16T264 0H47V742H242Q298 742 334 730T390 694T419 635T427 555V517ZM140 360V82H259Q294
82 316 92T350 120T367 165T372 226V233Q372 299 348 329T281 360H140ZM140 659V437H275Q309 437 324 462T339 523V538Q339 600 319 629T239 659H140Z" />
<glyph unicode="C" glyph-name="C" horiz-adv-x="492" d="M467 586H387Q364 633 333 650T270 668Q195 668 164 619T133 464V288Q133 245 139 208T161 144T201 101T263 85Q285 85 299 86T329 90T366 99T424 117L460 128V65L414 42Q386 28 365 18T327 2T294 -7T260
-10Q201 -10 160 9T91 65T52 151T39 265V487Q39 617 96 685T274 754Q328 754 379 732T467 646V586Z" />
<glyph unicode="D" glyph-name="D" horiz-adv-x="518" d="M479 282Q479 211 472 159T444 71T388 18T296 0H47V742H296Q347 742 382 722T438 666T469 583T479 482V282ZM141 659V84H273Q306 84 327 95T361 130T379 192T384 287V480Q384 568 359 613T269 659H141Z" />
<glyph unicode="E" glyph-name="E" horiz-adv-x="432" d="M394 658H141V434H387V349H141V83H396V0H47V742H394V658Z" />
<glyph unicode="F" glyph-name="F" horiz-adv-x="415" d="M400 658H142V421H380V337H142V0H47V742H400V658Z" />
<glyph unicode="G" glyph-name="G" horiz-adv-x="510" d="M470 586H390Q367 632 334 650T270 668Q192 668 163 618T133 464V288Q133 245 139 208T160 143T199 99T260 83Q286 83 313 91T390 123V333L283 348V402H476V74Q428 49 396 33T339 7T297 -6T257 -10Q199
-10 158 9T91 65T52 151T39 265V487Q39 617 96 685T274 754Q301 754 328 749T380 732T429 698T470 646V586Z" />
<glyph unicode="H" glyph-name="H" horiz-adv-x="506" d="M459 0H366V343H142V0H47V742H142V426H366V742H459V0Z" />
<glyph unicode="I" glyph-name="I" horiz-adv-x="197" d="M145 0H52V742H145V0Z" />
<glyph unicode="J" glyph-name="J" horiz-adv-x="364" d="M317 197Q317 136 310 96T285 33T240 0T169 -10Q136 -10 106 -5T41 20L10 36V101L48 88Q58 84 74 81T113 79Q149 79 171 84T205 106T220 149T224 220V742H317V197Z" />
<glyph unicode="K" glyph-name="K" horiz-adv-x="482" d="M449 682L297 420L462 71V0H375L217 363H141V0H47V742H141V438H216L375 742H449V682Z" />
<glyph unicode="L" glyph-name="L" horiz-adv-x="385" d="M142 83H371V0H47V742H142V83Z" />
<glyph unicode="M" glyph-name="M" horiz-adv-x="711" d="M666 0H581V597L407 15H311L129 596V0H45V742H175L360 143L540 742H666V0Z" />
<glyph unicode="N" glyph-name="N" horiz-adv-x="548" d="M501 0H412L129 542V0H46V742H134L419 187V742H501V0Z" />
<glyph unicode="O" glyph-name="O" horiz-adv-x="524" d="M485 302Q485 239 478 182T448 83T381 15T262 -10Q187 -10 143 15T76 82T46 182T39 302V440Q39 504 46 561T76 660T143 727T262 752Q337 752 381 728T448 661T478 561T485 440V302ZM389 427Q389 487 385
532T368 607T330 653T262 669Q219 669 194 654T156 608T139 532T135 427V315Q135 256 139 211T156 134T194 88T262 72Q305 72 330 87T368 134T385 210T389 315V427Z" />
<glyph unicode="P" glyph-name="P" horiz-adv-x="476" d="M456 485Q456 439 446 401T411 336T348 293T251 278H141V0H47V742H251Q354 742 405 700T456 558V485ZM141 661V357H213Q256 357 285 364T332 387T356 431T364 498V515Q364 555 359 583T339 628T301 653T241
661H141Z" />
<glyph unicode="Q" glyph-name="Q" horiz-adv-x="524" d="M485 302Q485 242 479 188T453 93T395 26T293 -5V-92Q293 -122 303 -137T340 -152H387V-219H309Q286 -219 271 -211T247 -188T235 -155T231 -115V-5Q167 -1 129 25T71 92T45 188T39 302V440Q39 504 46
561T76 660T143 727T262 752Q337 752 381 728T448 661T478 561T485 440V302ZM389 427Q389 486 385 531T368 607T330 653T262 669Q218 669 193 654T155 608T139 532T135 427V315Q135 256 138 211T155 134T193 88T262 72Q305 72 330 87T368 134T385 210T389 315V427Z"
/>
<glyph unicode="R" glyph-name="R" horiz-adv-x="488" d="M459 447Q459 387 439 345T370 282L459 74V0H380L281 264H141V0H47V742H285Q336 742 370 728T423 689T451 627T459 544V447ZM141 660V342H220Q270 342 300 348T345 373T365 426T370 516Q370 554 365 581T347
625T313 651T259 660H141Z" />
<glyph unicode="S" glyph-name="S" horiz-adv-x="461" d="M425 587H350Q344 624 315 644T243 664Q224 664 205 662T169 651T143 622T132 568Q132 527 154 503T209 460T282 425T354 380T410 310T432 199Q432 157 419 119T379 53T312 7T220 -10Q179 -10 147 1T90
32T51 76T29 131V187H102Q113 139 141 113T227 87Q259 87 281 96T318 121T338 160T344 209Q344 249 330 273T290 315Q260 336 229 351T170 381T118 410T76 447T48 499T37 572Q37 660 84 706T242 752Q310 752 360 724T425 647V587Z" />
<glyph unicode="T" glyph-name="T" horiz-adv-x="434" d="M420 658H264V0H170V658H14V742H420V658Z" />
<glyph unicode="U" glyph-name="U" horiz-adv-x="512" d="M468 236Q468 179 457 134T422 56T356 7T255 -11Q144 -11 94 52T43 236V742H137V261Q137 210 142 174T162 116T198 83T256 73Q290 73 313 83T350 115T369 172T375 257V742H468V236Z" />
<glyph unicode="V" glyph-name="V" horiz-adv-x="484" d="M463 670L301 0H188L21 670V742H107L246 129L379 742H463V670Z" />
<glyph unicode="W" glyph-name="W" horiz-adv-x="777" d="M756 671L615 0H502L388 613L273 0H159L21 671V742H109L220 123L333 742H447L559 123L672 742H756V671Z" />
<glyph unicode="X" glyph-name="X" horiz-adv-x="506" d="M475 664L313 380L476 69V0H398L249 293L94 0H29V77L200 379L45 668V742H119L262 461L409 742H475V664Z" />
<glyph unicode="Y" glyph-name="Y" horiz-adv-x="481" d="M462 680L287 280V0H194V278L19 680V742H101L242 376L383 742H462V680Z" />
<glyph unicode="Z" glyph-name="Z" horiz-adv-x="452" d="M412 679L135 83H424V0H25V65L304 658H43V742H412V679Z" />
<glyph unicode="[" glyph-name="bracketleft" horiz-adv-x="307" d="M273 773H137V-72H273V-130H72V831H273V773Z" />
<glyph unicode="\" glyph-name="backslash" horiz-adv-x="319" d="M301 0V-25H248L17 716V742H69L301 0Z" />
<glyph unicode="]" glyph-name="bracketright" horiz-adv-x="304" d="M236 -130H34V-72H170V773H34V831H236V-130Z" />
<glyph unicode="^" glyph-name="asciicircum" horiz-adv-x="415" d="M386 394H319L205 676L93 394H30L172 746H239L386 394Z" />
<glyph unicode="_" glyph-name="underscore" horiz-adv-x="425" d="M426 -165H0V-112H426V-165Z" />
<glyph unicode="`" glyph-name="grave" horiz-adv-x="308" d="M275 642L62 672V728L275 677V642Z" />
<glyph unicode="a" glyph-name="a" horiz-adv-x="465" d="M419 66Q419 51 431 51H439V0H402Q369 0 354 18T336 65Q298 41 274 27T233 6T203 -3T172 -5Q95 -5 61 47T26 186Q26 261 59 297T167 333H329Q329 374 325 402T310 447T277 471T221 478Q188 478 158 471T84
450L54 441V501L82 515Q109 528 130 537T170 552T206 561T243 564Q292 564 325 551T380 508T410 433T419 319V66ZM192 275Q150 275 132 254T114 186Q114 71 188 71Q201 71 213 72T240 79T275 94T328 121V275H192Z" />
<glyph unicode="b" glyph-name="b" horiz-adv-x="472" d="M137 524Q160 535 176 542T205 555T226 562T245 564Q314 564 352 546T410 492T434 405T439 287Q439 233 436 181T414 86T357 19T248 -7Q234 -7 222 -7T194 -4T159 3T108 14L46 28V680L66 796H137V524ZM137
87L161 82Q180 78 191 75T210 72Q259 72 287 83T328 120T345 186T348 282Q348 343 344 382T327 445T287 477T216 486Q211 486 207 485T194 482T173 476T137 464V87Z" />
<glyph unicode="c" glyph-name="c" horiz-adv-x="445" d="M413 429H342Q329 463 302 475T241 487Q206 487 184 476T148 442T130 386T125 311V276Q125 230 130 193T147 130T182 90T240 76Q253 76 264 76T289 80T325 89T380 105L410 114V53L391 43Q356 25 333 15T294
-1T264 -8T238 -10Q178 -10 140 10T79 66T47 151T38 260V330Q38 443 85 503T241 564Q298 564 343 547T413 484V429Z" />
<glyph unicode="d" glyph-name="d" horiz-adv-x="472" d="M427 66Q427 51 439 51H447V0H379Q362 0 354 9T344 34Q315 20 296 12T263 1T237 -4T210 -5Q149 -5 114 20T61 87T39 180T34 287Q34 353 38 404T62 491T120 545T228 564Q236 564 243 563T262 558T291 546T336
524V680L356 796H427V66ZM336 464Q315 471 302 475T280 482T265 485T252 486Q208 486 183 477T145 444T129 382T125 285Q125 233 128 194T143 130T180 91T249 78Q260 78 279 83T336 104V464Z" />
<glyph unicode="e" glyph-name="e" horiz-adv-x="461" d="M424 259H127Q127 230 130 198T144 139T178 94T240 76Q253 76 264 76T289 80T325 89T380 105L410 114V53L391 43Q356 25 333 15T294 -1T264 -8T238 -10Q177 -10 138 11T77 69T47 155T38 260V330Q38 444
84 504T235 564Q292 564 328 546T386 496T416 418T424 319V259ZM336 335Q336 413 315 453T234 494Q180 494 155 458T129 341V318H336V335Z" />
<glyph unicode="f" glyph-name="f" horiz-adv-x="289" d="M272 722H191Q170 722 162 707T154 661V554H270V486H154V0H63V486H16V554H63V670Q63 697 67 720T81 760T110 786T157 796H272V722Z" />
<glyph unicode="g" glyph-name="g" horiz-adv-x="472" d="M235 25Q164 25 124 42T64 91T39 171T34 280Q34 332 38 383T61 474T118 539T225 564Q238 564 250 563T278 560T314 554T365 543L427 529V51Q427 -1 420 -49T391 -135T331 -196T230 -219Q216 -219 204 -218T174
-211T134 -195T77 -166L58 -156V-95L88 -104Q121 -114 142 -120T178 -129T204 -132T228 -133Q265 -133 286 -118T319 -77T334 -20T337 44V60Q305 47 286 40T257 30T242 26T235 25ZM312 475Q285 480 272 481T254 485Q209 485 184 473T145 436T129 373T125 283Q125
228 129 193T147 136T189 107T264 99Q267 99 271 99T284 101T304 106T336 116V470L312 475Z" />
<glyph unicode="h" glyph-name="h" horiz-adv-x="480" d="M137 528Q167 541 185 548T214 558T230 563T239 564Q297 564 336 553T398 518T430 452T440 351V0H349V351Q349 388 345 414T327 456T289 479T225 486Q217 486 210 486T194 483T171 478T137 468V0H46V680L66
796H137V528Z" />
<glyph unicode="i" glyph-name="i" horiz-adv-x="190" d="M140 68Q140 51 152 51H162V0H83Q49 0 49 38V554H140V68ZM140 706H50V797H140V706Z" />
<glyph unicode="j" glyph-name="j" horiz-adv-x="188" d="M141 706H50V797H141V706ZM141 -93Q141 -120 137 -143T123 -183T94 -209T47 -219H-34V-145H13Q34 -145 42 -130T50 -84V554H141V-93Z" />
<glyph unicode="k" glyph-name="k" horiz-adv-x="456" d="M421 508L300 318L433 56V0H350L223 275H138V0H47V680L67 796H138V347H224L350 554H421V508Z" />
<glyph unicode="l" glyph-name="l" horiz-adv-x="185" d="M137 68Q137 51 149 51H159V0H80Q46 0 46 38V680L66 796H137V68Z" />
<glyph unicode="m" glyph-name="m" horiz-adv-x="719" d="M680 0H589V399Q589 423 585 440T570 467T538 481T484 486Q474 486 455 483T401 466Q410 436 410 400V0H319V399Q319 448 299 467T223 486Q216 486 209 486T193 484T170 478T136 468V0H45V554H120L125
523Q159 538 180 546T212 558T229 563T240 564Q291 564 324 551T378 512Q412 528 435 538T474 554T499 562T515 564Q572 564 604 550T654 513T675 460T680 399V0Z" />
<glyph unicode="n" glyph-name="n" horiz-adv-x="479" d="M440 0H349V351Q349 388 346 414T331 456T293 479T222 486Q215 486 209 486T193 483T170 478T136 468V0H45V554H120L125 523Q160 538 180 546T212 558T229 563T238 564Q308 564 348 550T409 508T435 441T440
351V0Z" />
<glyph unicode="o" glyph-name="o" horiz-adv-x="479" d="M441 257Q441 196 434 147T406 63T345 9T239 -10Q173 -10 134 9T73 62T45 146T38 257V297Q38 358 45 407T73 491T133 545T239 564Q305 564 345 545T406 492T434 408T441 297V257ZM349 315Q349 356 345
388T328 441T295 474T239 486Q203 486 181 474T148 436T133 374T129 287V267Q129 218 132 181T147 118T181 80T239 67Q275 67 297 80T330 118T345 180T349 267V315Z" />
<glyph unicode="p" glyph-name="p" horiz-adv-x="473" d="M122 554Q124 546 125 537T127 514Q153 528 170 537T200 551T226 557T255 559Q323 559 360 534T415 467T436 374T440 267Q440 201 436 150T413 63T359 9T259 -10Q245 -10 234 -9T210 -4T181 8T138 29V-219H47V554H122ZM138
99Q159 89 172 83T196 74T214 69T234 68Q272 68 295 77T330 109T345 170T349 269Q349 322 346 361T331 425T294 463T226 476Q216 476 209 475T193 472T172 465T138 453V99Z" />
<glyph unicode="q" glyph-name="q" horiz-adv-x="475" d="M427 -219H336V33Q313 22 297 14T268 2T247 -5T228 -7Q159 -7 121 11T63 65T39 152T34 270Q34 324 37 376T59 471T116 538T225 564Q238 564 250 563T278 560T314 554T365 543L427 529V-219ZM312 475Q285
480 272 481T254 485Q209 485 183 473T144 435T128 369T125 275Q125 214 128 175T145 112T185 80T257 71Q261 71 266 71T279 74T300 80T336 93V470L312 475Z" />
<glyph unicode="r" glyph-name="r" horiz-adv-x="378" d="M354 467H295Q289 474 277 477T228 481Q210 481 189 476T136 461V0H45V554H120L125 516Q161 531 186 539T230 552T268 558T310 559Q322 559 333 558T354 555V467Z" />
<glyph unicode="s" glyph-name="s" horiz-adv-x="441" d="M387 429H315Q307 463 281 480T220 498Q202 498 185 495T154 485T133 463T125 426Q125 393 146 374T198 341T266 315T334 282T387 230T408 144Q408 76 360 33T206 -10Q178 -10 152 -3T102 18T62 51T34
95V147H105Q115 107 144 86T211 64Q234 64 254 67T291 80T316 107T325 154Q325 181 311 199T277 229T234 248T193 263Q121 291 81 327T41 423Q41 490 83 527T221 564Q278 564 321 544T387 481V429Z" />
<glyph unicode="t" glyph-name="t" horiz-adv-x="314" d="M188 554H297V486H188V0H97V486H16V554H100L127 725H188V554Z" />
<glyph unicode="u" glyph-name="u" horiz-adv-x="469" d="M430 157Q430 67 380 29T233 -10Q136 -10 88 28T39 157V554H129V165Q129 112 156 92T235 72Q286 72 313 92T341 165V554H430V157Z" />
<glyph unicode="v" glyph-name="v" horiz-adv-x="464" d="M438 499L286 0H180L25 499V554H106L234 98L359 554H438V499Z" />
<glyph unicode="w" glyph-name="w" horiz-adv-x="730" d="M705 500L575 0H470L364 456L260 0H154L25 500V554H107L210 94L313 554H420L523 94L627 554H705V500Z" />
<glyph unicode="x" glyph-name="x" horiz-adv-x="450" d="M424 492L282 284L426 55V0H353L220 218L90 0H26V62L174 283L41 496V554H112L232 346L360 554H424V492Z" />
<glyph unicode="y" glyph-name="y" horiz-adv-x="480" d="M454 499L213 -219H123L193 -6L25 499V554H112L243 115L375 554H454V499Z" />
<glyph unicode="z" glyph-name="z" horiz-adv-x="416" d="M376 494L137 78H389V0H24V61L264 477H38V554H376V494Z" />
<glyph unicode="{" glyph-name="braceleft" horiz-adv-x="319" d="M280 772H229Q215 772 203 767T182 747T168 708T162 648V464Q162 418 152 393T120 356Q145 343 153 317T162 240V45Q162 8 167 -14T182 -49T203 -66T229 -71H280V-130H224Q202 -130 180 -123T139
-99T110 -54T98 19V220Q98 274 93 299T69 324H33V389H69Q89 389 93 415T98 492V690Q98 730 109 757T138 801T178 824T224 831H280V772Z" />
<glyph unicode="|" glyph-name="bar" horiz-adv-x="341" d="M203 -173H138V795H203V-173Z" />
<glyph unicode="}" glyph-name="braceright" horiz-adv-x="325" d="M221 492Q221 441 225 415T250 389H286V324H250Q232 324 227 299T221 220V19Q221 -25 210 -53T180 -99T140 -123T95 -130H39V-71H90Q103 -71 115 -67T137 -50T151 -15T157 45V240Q157 291 165
317T199 356Q177 367 167 392T157 464V648Q157 684 152 708T137 746T116 766T90 772H39V831H95Q118 831 140 824T181 801T210 758T221 690V492Z" />
<glyph unicode="~" glyph-name="asciitilde" horiz-adv-x="441" d="M398 359Q352 316 301 316Q277 316 257 322T219 335T182 348T142 354Q130 354 121 353T100 347T76 334T44 312V362Q62 382 87 394T138 406Q163 406 184 400T225 387T263 374T301 368Q313 368
323 369T344 375T368 388T398 408V359Z" />
<glyph unicode="&#xa1;" glyph-name="exclamdown" horiz-adv-x="244" d="M77 409H154L168 -140H63L77 409ZM77 625H153V521H77V625Z" />
<glyph unicode="&#xa2;" glyph-name="cent" horiz-adv-x="440" d="M262 652Q304 650 341 632T407 574V519H336Q318 551 291 563T234 576Q200 576 178 565T143 531T125 476T119 400V365Q119 320 124 283T141 220T176 179T234 165Q249 165 262 166T292 172T329 184T378
203L403 213V142L378 126Q342 103 314 94T262 82V0H206V81Q154 85 121 106T67 163T39 245T31 349V419Q31 525 72 584T206 651V742H262V652Z" />
<glyph unicode="&#xa3;" glyph-name="sterling" horiz-adv-x="478" d="M430 593H361Q344 635 319 652T261 670Q235 670 217 662T187 639T171 607T166 567Q166 511 181 467T216 380H365V331H236Q250 296 259 257T269 168Q269 145 263 118Q282 104 296 94T325 78T354
69T389 66H436V0H409Q364 0 324 11T241 58Q224 29 197 10T124 -10Q73 -10 48 18T22 94Q22 134 46 158T109 183Q133 183 153 178T193 165Q192 207 181 248T152 331H53V380H129Q111 417 96 462T81 576Q81 614 91 646T122 702T176 739T256 753Q312 753 354 732T430
652V593ZM187 105Q172 116 155 123T115 130Q77 130 77 89Q77 72 87 62T123 52Q152 52 166 67T187 105Z" />
<glyph unicode="&#xa5;" glyph-name="yen" horiz-adv-x="469" d="M435 698L288 393H435V342H273V224H435V174H273V0H195V174H34V224H195V342H34V393H179L34 698V742H92L234 428L377 742H435V698Z" />
<glyph unicode="&#xa8;" glyph-name="dieresis" horiz-adv-x="351" d="M302 636H232V750H302V636ZM117 636H47V750H117V636Z" />
<glyph unicode="&#xa9;" glyph-name="copyright" horiz-adv-x="674" d="M423 461H390Q379 480 366 486T337 493Q301 493 289 467T276 393V371Q276 319 288 288T336 256Q356 256 374 260T422 281V256Q405 244 393 237T372 225T354 219T335 217Q306 217 288 228T258
258T243 304T238 361V404Q238 464 261 495T337 527Q363 527 384 519T423 485V461ZM341 752Q488 752 561 658T635 370Q635 177 560 84T341 -10Q194 -10 116 83T38 370Q38 565 114 658T341 752ZM341 718Q207 718 138 632T69 370Q69 194 138 109T341 24Q471 24 537
108T604 370Q604 547 539 632T341 718Z" />
<glyph unicode="&#xaa;" glyph-name="ordfeminine" horiz-adv-x="379" d="M321 347Q321 336 326 333T339 329V299H319Q290 299 279 314T266 361Q234 339 214 326T181 306T160 297T143 295Q88 295 63 333T38 434Q38 486 61 513T139 540H261Q261 576 259 600T248
638T225 659T182 665Q159 665 129 661T59 643V679Q107 703 139 712T189 722Q233 722 259 712T299 678T317 617T321 528V347ZM159 505Q126 505 112 487T97 434Q97 351 151 351Q160 351 168 352T187 357T215 370T261 394V505H159Z" />
<glyph unicode="&#xab;" glyph-name="guillemotleft" horiz-adv-x="431" d="M278 315L407 145L371 109L209 315L371 522L407 487L278 315ZM94 315L224 145L187 109L24 315L187 522L224 487L94 315Z" />
<glyph unicode="&#xae;" glyph-name="registered" horiz-adv-x="558" d="M283 742Q496 742 496 485Q496 350 443 288T283 226Q174 226 119 289T64 485Q64 742 283 742ZM283 722Q84 722 84 485Q84 364 135 305T283 246Q377 246 426 303T476 485Q476 722 283 722ZM353
523Q353 503 344 485T318 463L356 382V358H330L289 457H243V358H212V621H293Q328 621 340 602T353 548V523ZM243 595V482H293Q308 482 316 493T324 520V541Q324 571 316 583T284 595H243Z" />
<glyph unicode="&#xaf;" glyph-name="overscore" horiz-adv-x="355" d="M306 675H47V723H306V675Z" />
<glyph unicode="&#xb0;" glyph-name="degree" horiz-adv-x="276" d="M137 742Q164 742 183 733T214 709T231 674T237 629Q237 606 232 586T214 550T183 525T137 516Q110 516 92 525T61 549T44 584T38 629Q38 653 43 673T61 709T91 733T137 742ZM137 699Q107 699
94 679T81 629Q81 600 94 580T137 559Q168 559 181 579T194 629Q194 658 182 678T137 699Z" />
<glyph unicode="&#xb4;" glyph-name="acute" horiz-adv-x="308" d="M254 672L42 642V677L254 728V672Z" />
<glyph unicode="&#xb5;" glyph-name="mu" horiz-adv-x="461" d="M408 141Q408 112 401 85T375 37T328 4T253 -9Q218 -9 181 4T119 38V-219H47V554H119V97Q144 77 177 64T243 50Q295 50 316 75T338 136V554H408V141Z" />
<glyph unicode="&#xb6;" glyph-name="paragraph" horiz-adv-x="457" d="M416 720L386 681V-139H321V685H200V-85Q200 -108 192 -123T162 -139H91V-85H122Q129 -85 131 -82T134 -67V504Q83 513 61 544T39 621Q39 645 45 667T65 705T100 732T150 742H416V720Z" />
<glyph unicode="&#xb7;" glyph-name="middot" horiz-adv-x="173" d="M124 323H47V427H124V323Z" />
<glyph unicode="&#xb8;" glyph-name="cedilla" horiz-adv-x="199" d="M94 -70Q118 -74 136 -90T154 -141Q154 -183 126 -200T47 -219V-184Q82 -183 96 -173T111 -138Q111 -115 96 -105T58 -93L69 0H101L94 -70Z" />
<glyph unicode="&#xba;" glyph-name="ordmasculine" horiz-adv-x="382" d="M340 490Q340 445 335 409T314 346T268 305T189 291Q141 291 112 305T67 345T46 408T41 490V523Q41 568 46 605T67 668T112 708T189 722Q238 722 268 708T314 668T335 605T340 523V490ZM278
514Q278 597 260 634T189 672Q160 672 143 662T117 633T105 584T102 515V499Q102 460 105 431T117 381T143 351T189 341Q218 341 235 351T262 381T275 430T278 499V514Z" />
<glyph unicode="&#xbb;" glyph-name="guillemotright" horiz-adv-x="430" d="M223 315L61 109L24 145L152 315L24 487L61 522L223 315ZM406 315L245 109L208 145L335 315L208 487L245 522L406 315Z" />
<glyph unicode="&#xbf;" glyph-name="questiondown" horiz-adv-x="462" d="M410 31V-24Q382 -84 339 -112T223 -140Q174 -140 140 -127T85 -91T55 -38T45 24Q45 65 57 95T89 148T131 191T172 230T204 270T217 317Q217 359 211 402H279Q289 379 293 356T298 312Q298
277 286 252T256 205T217 166T178 128T148 85T136 28Q136 -5 156 -29T225 -53Q276 -53 300 -32T338 31H410ZM209 631H286V527H209V631Z" />
<glyph unicode="&#xc0;" glyph-name="Agrave" horiz-adv-x="484" d="M463 72V0H377L342 145H137L105 0H21V72L183 742H296L463 72ZM149 224H330L238 615L149 224ZM331 830L118 860V916L331 865V830Z" />
<glyph unicode="&#xc1;" glyph-name="Aacute" horiz-adv-x="484" d="M463 72V0H377L342 145H137L105 0H21V72L183 742H296L463 72ZM149 224H330L238 615L149 224ZM379 860L167 830V865L379 916V860Z" />
<glyph unicode="&#xc2;" glyph-name="Acircumflex" horiz-adv-x="484" d="M463 72V0H377L342 145H137L105 0H21V72L183 742H296L463 72ZM149 224H330L238 615L149 224ZM374 822L239 864L104 822V857L239 916L374 857V822Z" />
<glyph unicode="&#xc3;" glyph-name="Atilde" horiz-adv-x="484" d="M463 72V0H377L342 145H137L105 0H21V72L183 742H296L463 72ZM149 224H330L238 615L149 224ZM374 868Q360 850 340 843T299 836Q280 836 266 840T240 849T215 858T186 862Q166 862 150 859T105
843V878Q119 895 139 902T181 909Q199 909 213 905T239 896T265 887T294 883Q317 883 333 887T374 903V868Z" />
<glyph unicode="&#xc4;" glyph-name="Adieresis" horiz-adv-x="484" d="M463 72V0H377L342 145H137L105 0H21V72L183 742H296L463 72ZM149 224H330L238 615L149 224ZM367 824H297V938H367V824ZM182 824H112V938H182V824Z" />
<glyph unicode="&#xc5;" glyph-name="Aring" horiz-adv-x="484" d="M463 72V0H377L342 145H137L105 0H21V72L183 742H296L463 72ZM149 224H330L238 615L149 224ZM240 957Q288 957 308 932T328 862Q328 817 308 792T240 767Q192 767 171 792T150 862Q150 907 171
932T240 957ZM240 925Q208 925 195 909T181 862Q181 832 194 816T240 799Q271 799 284 815T297 862Q297 892 284 908T240 925Z" />
<glyph unicode="&#xc6;" glyph-name="AE" horiz-adv-x="702" d="M663 658H411V434H657V349H411V83H666V0H317V145H135L95 0H18V63L225 742H663V658ZM278 658L157 224H317V658H278Z" />
<glyph unicode="&#xc7;" glyph-name="Ccedilla" horiz-adv-x="492" d="M467 586H387Q364 633 333 650T270 668Q195 668 164 619T133 464V288Q133 245 139 208T161 144T201 101T263 85Q285 85 299 86T329 90T366 99T424 117L460 128V65L414 42Q387 29 368 19T332
3T301 -7T270 -10L264 -70Q288 -74 306 -90T324 -141Q324 -183 296 -200T217 -219V-184Q252 -183 266 -173T281 -138Q281 -115 266 -105T228 -93L238 -9Q186 -5 149 16T87 72T51 156T39 265V487Q39 617 96 685T274 754Q328 754 379 732T467 646V586Z" />
<glyph unicode="&#xc8;" glyph-name="Egrave" horiz-adv-x="432" d="M394 658H141V434H387V349H141V83H396V0H47V742H394V658ZM311 830L98 860V916L311 865V830Z" />
<glyph unicode="&#xc9;" glyph-name="Eacute" horiz-adv-x="432" d="M394 658H141V434H387V349H141V83H396V0H47V742H394V658ZM358 860L146 830V865L358 916V860Z" />
<glyph unicode="&#xca;" glyph-name="Ecircumflex" horiz-adv-x="432" d="M394 658H141V434H387V349H141V83H396V0H47V742H394V658ZM351 822L216 864L81 822V857L216 916L351 857V822Z" />
<glyph unicode="&#xcb;" glyph-name="Edieresis" horiz-adv-x="432" d="M394 658H141V434H387V349H141V83H396V0H47V742H394V658ZM345 824H275V938H345V824ZM160 824H90V938H160V824Z" />
<glyph unicode="&#xcc;" glyph-name="Igrave" horiz-adv-x="197" d="M145 0H52V742H145V0ZM191 830L-22 860V916L191 865V830Z" />
<glyph unicode="&#xcd;" glyph-name="Iacute" horiz-adv-x="197" d="M145 0H52V742H145V0ZM240 860L28 830V865L240 916V860Z" />
<glyph unicode="&#xce;" glyph-name="Icircumflex" horiz-adv-x="197" d="M145 0H52V742H145V0ZM234 822L99 864L-36 822V857L99 916L234 857V822Z" />
<glyph unicode="&#xcf;" glyph-name="Idieresis" horiz-adv-x="197" d="M145 0H52V742H145V0ZM227 824H157V938H227V824ZM42 824H-28V938H42V824Z" />
<glyph unicode="&#xd1;" glyph-name="Ntilde" horiz-adv-x="548" d="M501 0H412L129 542V0H46V742H134L419 187V742H501V0ZM405 868Q391 850 371 843T330 836Q311 836 297 840T271 849T246 858T217 862Q197 862 181 859T136 843V878Q150 895 170 902T212 909Q230
909 244 905T270 896T296 887T325 883Q348 883 364 887T405 903V868Z" />
<glyph unicode="&#xd2;" glyph-name="Ograve" horiz-adv-x="524" d="M485 302Q485 239 478 182T448 83T381 15T262 -10Q187 -10 143 15T76 82T46 182T39 302V440Q39 504 46 561T76 660T143 727T262 752Q337 752 381 728T448 661T478 561T485 440V302ZM389 427Q389
487 385 532T368 607T330 653T262 669Q219 669 194 654T156 608T139 532T135 427V315Q135 256 139 211T156 134T194 88T262 72Q305 72 330 87T368 134T385 210T389 315V427ZM356 830L143 860V916L356 865V830Z" />
<glyph unicode="&#xd3;" glyph-name="Oacute" horiz-adv-x="524" d="M485 302Q485 239 478 182T448 83T381 15T262 -10Q187 -10 143 15T76 82T46 182T39 302V440Q39 504 46 561T76 660T143 727T262 752Q337 752 381 728T448 661T478 561T485 440V302ZM389 427Q389
487 385 532T368 607T330 653T262 669Q219 669 194 654T156 608T139 532T135 427V315Q135 256 139 211T156 134T194 88T262 72Q305 72 330 87T368 134T385 210T389 315V427ZM401 860L189 830V865L401 916V860Z" />
<glyph unicode="&#xd4;" glyph-name="Ocircumflex" horiz-adv-x="524" d="M485 302Q485 239 478 182T448 83T381 15T262 -10Q187 -10 143 15T76 82T46 182T39 302V440Q39 504 46 561T76 660T143 727T262 752Q337 752 381 728T448 661T478 561T485 440V302ZM389
427Q389 487 385 532T368 607T330 653T262 669Q219 669 194 654T156 608T139 532T135 427V315Q135 256 139 211T156 134T194 88T262 72Q305 72 330 87T368 134T385 210T389 315V427ZM397 822L262 864L127 822V857L262 916L397 857V822Z" />
<glyph unicode="&#xd5;" glyph-name="Otilde" horiz-adv-x="524" d="M485 302Q485 239 478 182T448 83T381 15T262 -10Q187 -10 143 15T76 82T46 182T39 302V440Q39 504 46 561T76 660T143 727T262 752Q337 752 381 728T448 661T478 561T485 440V302ZM389 427Q389
487 385 532T368 607T330 653T262 669Q219 669 194 654T156 608T139 532T135 427V315Q135 256 139 211T156 134T194 88T262 72Q305 72 330 87T368 134T385 210T389 315V427ZM396 868Q382 850 362 843T321 836Q302 836 288 840T262 849T237 858T208 862Q188 862
172 859T127 843V878Q141 895 161 902T203 909Q221 909 235 905T261 896T287 887T316 883Q339 883 355 887T396 903V868Z" />
<glyph unicode="&#xd6;" glyph-name="Odieresis" horiz-adv-x="524" d="M485 302Q485 239 478 182T448 83T381 15T262 -10Q187 -10 143 15T76 82T46 182T39 302V440Q39 504 46 561T76 660T143 727T262 752Q337 752 381 728T448 661T478 561T485 440V302ZM389 427Q389
487 385 532T368 607T330 653T262 669Q219 669 194 654T156 608T139 532T135 427V315Q135 256 139 211T156 134T194 88T262 72Q305 72 330 87T368 134T385 210T389 315V427ZM387 824H317V938H387V824ZM202 824H132V938H202V824Z" />
<glyph unicode="&#xd8;" glyph-name="Oslash" horiz-adv-x="524" d="M452 781L418 700Q439 679 452 651T473 589T482 518T485 440V302Q485 239 478 182T448 83T381 15T262 -10Q222 -10 192 -3T138 17L109 -55H73V-39L106 42Q84 63 71 91T51 152T42 224T39 302V440Q39
504 46 561T76 660T143 727T262 752Q340 752 386 724L416 797H452V781ZM135 315Q135 261 137 221T150 149L350 637Q321 669 262 669Q219 669 194 654T156 608T139 532T135 427V315ZM174 104Q203 72 262 72Q305 72 330 87T368 134T385 210T389 315V427Q389 479 386
520T374 591L174 104Z" />
<glyph unicode="&#xd9;" glyph-name="Ugrave" horiz-adv-x="512" d="M468 236Q468 179 457 134T422 56T356 7T255 -11Q144 -11 94 52T43 236V742H137V261Q137 210 142 174T162 116T198 83T256 73Q290 73 313 83T350 115T369 172T375 257V742H468V236ZM350 830L137
860V916L350 865V830Z" />
<glyph unicode="&#xda;" glyph-name="Uacute" horiz-adv-x="512" d="M468 236Q468 179 457 134T422 56T356 7T255 -11Q144 -11 94 52T43 236V742H137V261Q137 210 142 174T162 116T198 83T256 73Q290 73 313 83T350 115T369 172T375 257V742H468V236ZM397 860L185
830V865L397 916V860Z" />
<glyph unicode="&#xdb;" glyph-name="Ucircumflex" horiz-adv-x="512" d="M468 236Q468 179 457 134T422 56T356 7T255 -11Q144 -11 94 52T43 236V742H137V261Q137 210 142 174T162 116T198 83T256 73Q290 73 313 83T350 115T369 172T375 257V742H468V236ZM391
822L256 864L121 822V857L256 916L391 857V822Z" />
<glyph unicode="&#xdc;" glyph-name="Udieresis" horiz-adv-x="512" d="M468 236Q468 179 457 134T422 56T356 7T255 -11Q144 -11 94 52T43 236V742H137V261Q137 210 142 174T162 116T198 83T256 73Q290 73 313 83T350 115T369 172T375 257V742H468V236ZM387 824H317V938H387V824ZM202
824H132V938H202V824Z" />
<glyph unicode="&#xdf;" glyph-name="germandbls" horiz-adv-x="480" d="M194 722Q160 722 149 709T137 661V0H46V664Q46 692 50 716T64 758T93 786T140 796H313Q347 796 368 786T402 756T419 704T424 632Q424 544 404 497T336 435Q388 425 418 376T448 246Q448
165 438 117T403 42T335 8T226 0V71Q266 71 291 77T331 103T351 157T357 251Q357 326 329 360T250 395H226V465H249Q297 465 318 495T339 606Q339 642 336 664T326 700T309 717T284 722H194Z" />
<glyph unicode="&#xe0;" glyph-name="agrave" horiz-adv-x="465" d="M419 66Q419 51 431 51H439V0H402Q369 0 354 18T336 65Q298 41 274 27T233 6T203 -3T172 -5Q95 -5 61 47T26 186Q26 261 59 297T167 333H329Q329 374 325 402T310 447T277 471T221 478Q188 478
158 471T84 450L54 441V501L82 515Q109 528 130 537T170 552T206 561T243 564Q292 564 325 551T380 508T410 433T419 319V66ZM192 275Q150 275 132 254T114 186Q114 71 188 71Q201 71 213 72T240 79T275 94T328 121V275H192ZM331 642L118 672V728L331 677V642Z"
/>
<glyph unicode="&#xe1;" glyph-name="aacute" horiz-adv-x="465" d="M419 66Q419 51 431 51H439V0H402Q369 0 354 18T336 65Q298 41 274 27T233 6T203 -3T172 -5Q95 -5 61 47T26 186Q26 261 59 297T167 333H329Q329 374 325 402T310 447T277 471T221 478Q188 478
158 471T84 450L54 441V501L82 515Q109 528 130 537T170 552T206 561T243 564Q292 564 325 551T380 508T410 433T419 319V66ZM192 275Q150 275 132 254T114 186Q114 71 188 71Q201 71 213 72T240 79T275 94T328 121V275H192ZM378 672L166 642V677L378 728V672Z"
/>
<glyph unicode="&#xe2;" glyph-name="acircumflex" horiz-adv-x="465" d="M419 66Q419 51 431 51H439V0H402Q369 0 354 18T336 65Q298 41 274 27T233 6T203 -3T172 -5Q95 -5 61 47T26 186Q26 261 59 297T167 333H329Q329 374 325 402T310 447T277 471T221 478Q188
478 158 471T84 450L54 441V501L82 515Q109 528 130 537T170 552T206 561T243 564Q292 564 325 551T380 508T410 433T419 319V66ZM192 275Q150 275 132 254T114 186Q114 71 188 71Q201 71 213 72T240 79T275 94T328 121V275H192ZM371 634L236 676L101 634V669L236
728L371 669V634Z" />
<glyph unicode="&#xe3;" glyph-name="atilde" horiz-adv-x="465" d="M419 66Q419 51 431 51H439V0H402Q369 0 354 18T336 65Q298 41 274 27T233 6T203 -3T172 -5Q95 -5 61 47T26 186Q26 261 59 297T167 333H329Q329 374 325 402T310 447T277 471T221 478Q188 478
158 471T84 450L54 441V501L82 515Q109 528 130 537T170 552T206 561T243 564Q292 564 325 551T380 508T410 433T419 319V66ZM192 275Q150 275 132 254T114 186Q114 71 188 71Q201 71 213 72T240 79T275 94T328 121V275H192ZM370 680Q356 662 336 655T295 648Q276
648 262 652T236 661T211 670T182 674Q162 674 146 671T101 655V690Q115 707 135 714T177 721Q195 721 209 717T235 708T261 699T290 695Q313 695 329 699T370 715V680Z" />
<glyph unicode="&#xe4;" glyph-name="adieresis" horiz-adv-x="465" d="M419 66Q419 51 431 51H439V0H402Q369 0 354 18T336 65Q298 41 274 27T233 6T203 -3T172 -5Q95 -5 61 47T26 186Q26 261 59 297T167 333H329Q329 374 325 402T310 447T277 471T221 478Q188
478 158 471T84 450L54 441V501L82 515Q109 528 130 537T170 552T206 561T243 564Q292 564 325 551T380 508T410 433T419 319V66ZM192 275Q150 275 132 254T114 186Q114 71 188 71Q201 71 213 72T240 79T275 94T328 121V275H192ZM364 636H294V750H364V636ZM179
636H109V750H179V636Z" />
<glyph unicode="&#xe5;" glyph-name="aring" horiz-adv-x="465" d="M419 66Q419 51 431 51H439V0H402Q369 0 354 18T336 65Q298 41 274 27T233 6T203 -3T172 -5Q95 -5 61 47T26 186Q26 261 59 297T167 333H329Q329 374 325 402T310 447T277 471T221 478Q188 478
158 471T84 450L54 441V501L82 515Q109 528 130 537T170 552T206 561T243 564Q292 564 325 551T380 508T410 433T419 319V66ZM192 275Q150 275 132 254T114 186Q114 71 188 71Q201 71 213 72T240 79T275 94T328 121V275H192ZM235 769Q283 769 303 744T323 674Q323
629 303 604T235 579Q187 579 166 604T145 674Q145 719 166 744T235 769ZM235 737Q203 737 190 721T176 674Q176 644 189 628T235 611Q266 611 279 627T292 674Q292 704 279 720T235 737Z" />
<glyph unicode="&#xe6;" glyph-name="ae" horiz-adv-x="753" d="M715 259H419Q419 231 422 199T437 140T471 94T531 76Q544 76 555 76T580 80T616 89T671 105L701 114V53L682 43Q647 25 624 15T585 -1T555 -8T529 -10Q477 -10 433 10T363 82Q324 56 297 39T249
13T210 -1T172 -5Q95 -5 61 47T26 186Q26 261 59 297T167 333H329Q328 365 326 391T313 437T281 467T221 478Q188 478 158 471T84 450L54 441V501L82 515Q109 528 130 537T170 552T206 561T243 564Q288 564 326 542T382 473Q399 518 438 541T526 564Q583 564 619
546T677 496T707 418T715 319V259ZM192 275Q150 275 132 254T114 186Q114 71 188 71Q203 71 215 72T244 79T283 95T339 124Q328 179 328 237V275H192ZM627 335Q627 413 606 453T525 494Q493 494 473 481T441 447T425 398T420 341V318H627V335Z" />
<glyph unicode="&#xe7;" glyph-name="ccedilla" horiz-adv-x="445" d="M413 429H342Q329 463 302 475T241 487Q206 487 184 476T148 442T130 386T125 311V276Q125 230 130 193T147 130T182 90T240 76Q253 76 264 76T289 80T325 89T380 105L410 114V53L391 43Q359
26 337 16T299 0T270 -8T246 -10L240 -70Q264 -74 282 -90T300 -141Q300 -183 272 -200T193 -219V-184Q228 -183 242 -173T257 -138Q257 -115 242 -105T204 -93L214 -9Q162 -5 128 16T74 73T46 156T38 260V330Q38 443 85 503T241 564Q298 564 343 547T413 484V429Z"
/>
<glyph unicode="&#xe8;" glyph-name="egrave" horiz-adv-x="461" d="M424 259H127Q127 230 130 198T144 139T178 94T240 76Q253 76 264 76T289 80T325 89T380 105L410 114V53L391 43Q356 25 333 15T294 -1T264 -8T238 -10Q177 -10 138 11T77 69T47 155T38 260V330Q38
444 84 504T235 564Q292 564 328 546T386 496T416 418T424 319V259ZM336 335Q336 413 315 453T234 494Q180 494 155 458T129 341V318H336V335ZM326 642L113 672V728L326 677V642Z" />
<glyph unicode="&#xe9;" glyph-name="eacute" horiz-adv-x="461" d="M424 259H127Q127 230 130 198T144 139T178 94T240 76Q253 76 264 76T289 80T325 89T380 105L410 114V53L391 43Q356 25 333 15T294 -1T264 -8T238 -10Q177 -10 138 11T77 69T47 155T38 260V330Q38
444 84 504T235 564Q292 564 328 546T386 496T416 418T424 319V259ZM336 335Q336 413 315 453T234 494Q180 494 155 458T129 341V318H336V335ZM373 672L161 642V677L373 728V672Z" />
<glyph unicode="&#xea;" glyph-name="ecircumflex" horiz-adv-x="461" d="M424 259H127Q127 230 130 198T144 139T178 94T240 76Q253 76 264 76T289 80T325 89T380 105L410 114V53L391 43Q356 25 333 15T294 -1T264 -8T238 -10Q177 -10 138 11T77 69T47 155T38
260V330Q38 444 84 504T235 564Q292 564 328 546T386 496T416 418T424 319V259ZM336 335Q336 413 315 453T234 494Q180 494 155 458T129 341V318H336V335ZM366 634L231 676L96 634V669L231 728L366 669V634Z" />
<glyph unicode="&#xeb;" glyph-name="edieresis" horiz-adv-x="461" d="M424 259H127Q127 230 130 198T144 139T178 94T240 76Q253 76 264 76T289 80T325 89T380 105L410 114V53L391 43Q356 25 333 15T294 -1T264 -8T238 -10Q177 -10 138 11T77 69T47 155T38 260V330Q38
444 84 504T235 564Q292 564 328 546T386 496T416 418T424 319V259ZM336 335Q336 413 315 453T234 494Q180 494 155 458T129 341V318H336V335ZM359 636H289V750H359V636ZM174 636H104V750H174V636Z" />
<glyph unicode="&#xec;" glyph-name="igrave" horiz-adv-x="201" d="M450 642L237 672V728L450 677V642ZM138 68Q138 51 150 51H160V0H81Q47 0 47 38V554H138V68Z" />
<glyph unicode="&#xed;" glyph-name="iacute" horiz-adv-x="201" d="M491 672L279 642V677L491 728V672ZM138 68Q138 51 150 51H160V0H81Q47 0 47 38V554H138V68Z" />
<glyph unicode="&#xee;" glyph-name="icircumflex" horiz-adv-x="201" d="M138 68Q138 51 150 51H160V0H81Q47 0 47 38V554H138V68ZM485 634L350 676L215 634V669L350 728L485 669V634Z" />
<glyph unicode="&#xef;" glyph-name="idieresis" horiz-adv-x="201" d="M478 636H408V750H478V636ZM293 636H223V750H293V636ZM138 68Q138 51 150 51H160V0H81Q47 0 47 38V554H138V68Z" />
<glyph unicode="&#xf1;" glyph-name="ntilde" horiz-adv-x="479" d="M440 0H349V351Q349 388 346 414T331 456T293 479T222 486Q215 486 209 486T193 483T170 478T136 468V0H45V554H120L125 523Q160 538 180 546T212 558T229 563T238 564Q308 564 348 550T409
508T435 441T440 351V0ZM364 680Q350 662 330 655T289 648Q270 648 256 652T230 661T205 670T176 674Q156 674 140 671T95 655V690Q109 707 129 714T171 721Q189 721 203 717T229 708T255 699T284 695Q307 695 323 699T364 715V680Z" />
<glyph unicode="&#xf2;" glyph-name="ograve" horiz-adv-x="479" d="M441 257Q441 196 434 147T406 63T345 9T239 -10Q173 -10 134 9T73 62T45 146T38 257V297Q38 358 45 407T73 491T133 545T239 564Q305 564 345 545T406 492T434 408T441 297V257ZM349 315Q349
356 345 388T328 441T295 474T239 486Q203 486 181 474T148 436T133 374T129 287V267Q129 218 132 181T147 118T181 80T239 67Q275 67 297 80T330 118T345 180T349 267V315ZM330 642L117 672V728L330 677V642Z" />
<glyph unicode="&#xf3;" glyph-name="oacute" horiz-adv-x="479" d="M441 257Q441 196 434 147T406 63T345 9T239 -10Q173 -10 134 9T73 62T45 146T38 257V297Q38 358 45 407T73 491T133 545T239 564Q305 564 345 545T406 492T434 408T441 297V257ZM349 315Q349
356 345 388T328 441T295 474T239 486Q203 486 181 474T148 436T133 374T129 287V267Q129 218 132 181T147 118T181 80T239 67Q275 67 297 80T330 118T345 180T349 267V315ZM379 672L167 642V677L379 728V672Z" />
<glyph unicode="&#xf4;" glyph-name="ocircumflex" horiz-adv-x="479" d="M441 257Q441 196 434 147T406 63T345 9T239 -10Q173 -10 134 9T73 62T45 146T38 257V297Q38 358 45 407T73 491T133 545T239 564Q305 564 345 545T406 492T434 408T441 297V257ZM349 315Q349
356 345 388T328 441T295 474T239 486Q203 486 181 474T148 436T133 374T129 287V267Q129 218 132 181T147 118T181 80T239 67Q275 67 297 80T330 118T345 180T349 267V315ZM374 634L239 676L104 634V669L239 728L374 669V634Z" />
<glyph unicode="&#xf5;" glyph-name="otilde" horiz-adv-x="479" d="M441 257Q441 196 434 147T406 63T345 9T239 -10Q173 -10 134 9T73 62T45 146T38 257V297Q38 358 45 407T73 491T133 545T239 564Q305 564 345 545T406 492T434 408T441 297V257ZM349 315Q349
356 345 388T328 441T295 474T239 486Q203 486 181 474T148 436T133 374T129 287V267Q129 218 132 181T147 118T181 80T239 67Q275 67 297 80T330 118T345 180T349 267V315ZM373 680Q359 662 339 655T298 648Q279 648 265 652T239 661T214 670T185 674Q165 674
149 671T104 655V690Q118 707 138 714T180 721Q198 721 212 717T238 708T264 699T293 695Q316 695 332 699T373 715V680Z" />
<glyph unicode="&#xf6;" glyph-name="odieresis" horiz-adv-x="479" d="M441 257Q441 196 434 147T406 63T345 9T239 -10Q173 -10 134 9T73 62T45 146T38 257V297Q38 358 45 407T73 491T133 545T239 564Q305 564 345 545T406 492T434 408T441 297V257ZM349 315Q349
356 345 388T328 441T295 474T239 486Q203 486 181 474T148 436T133 374T129 287V267Q129 218 132 181T147 118T181 80T239 67Q275 67 297 80T330 118T345 180T349 267V315ZM364 636H294V750H364V636ZM179 636H109V750H179V636Z" />
<glyph unicode="&#xf7;" glyph-name="divide" horiz-adv-x="505" d="M462 331H43V395H462V331ZM292 105H215V209H292V105ZM292 520H215V624H292V520Z" />
<glyph unicode="&#xf8;" glyph-name="oslash" horiz-adv-x="479" d="M400 568L379 523Q417 490 429 433T441 297V257Q441 196 434 147T406 63T345 9T239 -10Q206 -10 180 -5T134 9L116 -30H79V-14L100 30Q61 63 50 121T38 257V297Q38 358 45 407T73 491T133 545T239
564Q272 564 298 559T345 545L364 584H400V568ZM129 267Q129 219 132 185T145 124L308 466Q282 486 239 486Q203 486 181 474T148 436T133 374T129 287V267ZM171 86Q193 67 239 67Q275 67 297 80T330 118T345 180T349 267V315Q349 350 346 379T334 429L171 86Z"
/>
<glyph unicode="&#xf9;" glyph-name="ugrave" horiz-adv-x="469" d="M430 157Q430 67 380 29T233 -10Q136 -10 88 28T39 157V554H129V165Q129 112 156 92T235 72Q286 72 313 92T341 165V554H430V157ZM329 642L116 672V728L329 677V642Z" />
<glyph unicode="&#xfa;" glyph-name="uacute" horiz-adv-x="469" d="M430 157Q430 67 380 29T233 -10Q136 -10 88 28T39 157V554H129V165Q129 112 156 92T235 72Q286 72 313 92T341 165V554H430V157ZM376 672L164 642V677L376 728V672Z" />
<glyph unicode="&#xfb;" glyph-name="ucircumflex" horiz-adv-x="469" d="M430 157Q430 67 380 29T233 -10Q136 -10 88 28T39 157V554H129V165Q129 112 156 92T235 72Q286 72 313 92T341 165V554H430V157ZM369 634L234 676L99 634V669L234 728L369 669V634Z" />
<glyph unicode="&#xfc;" glyph-name="udieresis" horiz-adv-x="469" d="M430 157Q430 67 380 29T233 -10Q136 -10 88 28T39 157V554H129V165Q129 112 156 92T235 72Q286 72 313 92T341 165V554H430V157ZM362 636H292V750H362V636ZM177 636H107V750H177V636Z" />
<glyph unicode="&#xff;" glyph-name="ydieresis" horiz-adv-x="480" d="M454 499L213 -219H123L193 -6L25 499V554H112L243 115L375 554H454V499ZM366 636H296V750H366V636ZM181 636H111V750H181V636Z" />
<glyph unicode="&#x131;" glyph-name="dotlessi" horiz-adv-x="201" d="M138 68Q138 51 150 51H160V0H81Q47 0 47 38V554H138V68Z" />
<glyph unicode="&#x152;" glyph-name="OE" horiz-adv-x="760" d="M721 658H484V434H715V349H484V83H724V0H400V61Q356 -10 262 -10Q187 -10 143 14T76 81T46 180T39 302V440Q39 504 46 561T76 660T143 727T262 752Q316 752 348 735T401 686V742H721V658ZM389 439Q389
496 385 539T367 611T328 654T262 669Q219 669 194 654T156 608T139 532T135 427V315Q135 256 139 211T156 134T194 88T262 72Q305 72 330 87T368 134T385 210T389 315V439Z" />
<glyph unicode="&#x153;" glyph-name="oe" horiz-adv-x="772" d="M735 259H438Q438 230 441 198T455 139T489 94T551 76Q564 76 575 76T600 80T636 89T691 105L721 114V53L702 43Q667 25 644 15T605 -1T575 -8T549 -10Q488 -10 452 13T398 69Q380 37 343 14T239
-10Q173 -10 134 9T73 62T45 146T38 257V297Q38 358 45 407T73 491T133 545T239 564Q307 564 344 540T397 483Q417 523 453 543T546 564Q603 564 639 546T697 496T727 418T735 319V259ZM349 315Q349 356 345 388T328 441T295 474T239 486Q203 486 181 474T148 436T133
374T129 287V267Q129 218 132 181T147 118T181 80T239 67Q275 67 297 80T330 118T345 180T349 267V315ZM647 335Q647 413 626 453T545 494Q491 494 466 458T440 341V318H647V335Z" />
<glyph unicode="&#x178;" glyph-name="Ydieresis" horiz-adv-x="481" d="M462 680L287 280V0H194V278L19 680V742H101L242 376L383 742H462V680ZM368 824H298V938H368V824ZM183 824H113V938H183V824Z" />
<glyph unicode="&#x2c6;" glyph-name="circumflex" horiz-adv-x="366" d="M317 634L182 676L47 634V669L182 728L317 669V634Z" />
<glyph unicode="&#x2c7;" glyph-name="caron" horiz-adv-x="366" d="M317 688L182 629L47 688V723L182 682L317 723V688Z" />
<glyph unicode="&#x2d8;" glyph-name="breve" horiz-adv-x="360" d="M312 705Q294 675 263 654T180 633Q129 633 98 654T47 705V735H88Q100 707 122 690T180 673Q215 673 237 690T271 735H312V705Z" />
<glyph unicode="&#x2d9;" glyph-name="dotaccent" horiz-adv-x="156" d="M112 636H42V750H112V636Z" />
<glyph unicode="&#x2da;" glyph-name="ring" horiz-adv-x="274" d="M137 769Q185 769 205 744T225 674Q225 629 205 604T137 579Q89 579 68 604T47 674Q47 719 68 744T137 769ZM137 737Q105 737 92 721T78 674Q78 644 91 628T137 611Q168 611 181 627T194 674Q194
704 181 720T137 737Z" />
<glyph unicode="&#x2db;" glyph-name="ogonek" horiz-adv-x="242" d="M84 -29Q78 -40 73 -52T68 -78Q68 -122 86 -140T147 -158H219V-219H143Q121 -219 100 -213T63 -193T36 -157T26 -105Q26 -75 36 -49T61 0H99L84 -29Z" />
<glyph unicode="&#x2dc;" glyph-name="tilde" horiz-adv-x="365" d="M316 680Q302 662 282 655T241 648Q222 648 208 652T182 661T157 670T128 674Q108 674 92 671T47 655V690Q61 707 81 714T123 721Q141 721 155 717T181 708T207 699T236 695Q259 695 275 699T316
715V680Z" />
<glyph unicode="&#x2dd;" glyph-name="hungarumlaut" horiz-adv-x="373" d="M105 625H61L162 743H212L105 625ZM232 625H187L288 743H338L232 625Z" />
<glyph unicode="&#x2013;" glyph-name="endash" horiz-adv-x="483" d="M460 286H24V339H460V286Z" />
<glyph unicode="&#x2014;" glyph-name="emdash" horiz-adv-x="727" d="M704 286H24V339H704V286Z" />
<glyph unicode="&#x2018;" glyph-name="quoteleft" horiz-adv-x="126" d="M99 565H68Q55 584 40 635T24 757V799H99V565Z" />
<glyph unicode="&#x2019;" glyph-name="quoteright" horiz-adv-x="126" d="M99 757Q99 724 94 693T83 636T69 592T56 565H24V799H99V757Z" />
<glyph unicode="&#x201a;" glyph-name="quotesinglbase" horiz-adv-x="126" d="M99 90Q99 55 95 24T84 -32T70 -75T56 -101H24V132H99V90Z" />
<glyph unicode="&#x201c;" glyph-name="quotedblleft" horiz-adv-x="255" d="M229 565H197Q191 574 184 592T170 635T159 691T154 757V799H229V565ZM99 565H68Q55 584 40 635T24 757V799H99V565Z" />
<glyph unicode="&#x201d;" glyph-name="quotedblright" horiz-adv-x="255" d="M99 757Q99 724 94 693T83 636T69 592T56 565H24V799H99V757ZM229 757Q229 724 224 693T212 636T198 592T185 565H154V799H229V757Z" />
<glyph unicode="&#x201e;" glyph-name="quotedblbase" horiz-adv-x="255" d="M99 90Q99 55 95 24T84 -32T70 -75T56 -101H24V132H99V90ZM229 90Q229 55 225 24T214 -32T199 -75T185 -101H154V132H229V90Z" />
<glyph unicode="&#x2020;" glyph-name="dagger" horiz-adv-x="336" d="M196 716L179 710V629L280 603V580H196V539L178 526L196 514Q196 382 186 267T161 45Q147 151 137 265T127 514L145 526L127 539V580H42V603L144 629V710L127 716V742H196V716Z" />
<glyph unicode="&#x2021;" glyph-name="daggerdbl" horiz-adv-x="378" d="M224 716L207 710V629L309 603V580H224V547L206 537L224 528Q224 485 220 446T208 371Q224 300 224 214L206 204L224 194V162H309V138L207 112V32L224 25V0H155V26L172 31V112L70 139V162H155V194L174
204L155 214Q155 256 158 295T171 371Q162 408 159 446T155 528L174 537L155 547V580H70V603L172 629V710L155 716V742H224V716Z" />
<glyph unicode="&#x2022;" glyph-name="bullet" horiz-adv-x="323" d="M162 454Q204 454 232 427T261 355Q261 334 253 316T232 285T200 264T162 256Q119 256 91 284T62 355Q62 400 90 427T162 454Z" />
<glyph unicode="&#x2026;" glyph-name="ellipsis" horiz-adv-x="721" d="M145 0H67V104H145V0ZM400 0H323V104H400V0ZM655 0H578V104H655V0Z" />
<glyph unicode="&#x2030;" glyph-name="perthousand" horiz-adv-x="835" d="M475 712L165 0H122V29L433 742H475V712ZM806 193Q806 145 802 108T787 44T755 4T699 -10Q664 -10 643 3T611 43T596 107T592 193V207Q592 252 597 287T614 346T647 384T699 397Q730
397 751 384T784 347T801 287T806 207V193ZM254 543Q254 495 250 458T235 394T202 354T147 340Q112 340 91 353T59 393T44 457T40 543V557Q40 602 45 637T62 696T94 734T147 747Q178 747 198 734T231 697T249 637T254 557V543ZM554 193Q554 145 550 108T535 44T503
4T447 -10Q412 -10 391 3T359 43T344 107T340 193V207Q340 252 345 287T362 346T395 384T447 397Q478 397 499 384T532 347T549 287T554 207V193ZM758 200Q758 269 746 305T699 341Q664 341 652 309T640 210V193Q640 118 651 81T699 44Q735 44 746 76T758 172V200ZM206
550Q206 619 194 655T147 691Q111 691 100 659T88 560V543Q88 468 98 431T147 394Q182 394 194 426T206 522V550ZM506 200Q506 269 494 305T447 341Q412 341 400 309T388 210V193Q388 118 399 81T447 44Q483 44 494 76T506 172V200Z" />
<glyph unicode="&#x2039;" glyph-name="guilsinglleft" horiz-adv-x="243" d="M90 316L220 144L185 112L24 316L185 520L219 488L90 316Z" />
<glyph unicode="&#x203a;" glyph-name="guilsinglright" horiz-adv-x="243" d="M220 316L59 112L24 145L154 316L24 488L59 520L220 316Z" />
<glyph unicode="&#x2044;" glyph-name="fraction" horiz-adv-x="223" d="M325 710L-61 -48H-105V-10L282 748H325V710Z" />
<glyph unicode="&#x20ac;" glyph-name="Euro" horiz-adv-x="449" d="M404 645H364Q346 671 320 680T262 689Q219 689 194 673T155 625T137 542T133 423H332V396L322 367H133V263Q133 156 160 104T259 51Q302 51 329 69T372 118H408V62Q389 31 353 9T259 -13Q203
-13 165 4T103 57T69 145T58 266V367H24V397L33 423H58Q58 507 65 568T93 671T154 732T258 752Q283 752 301 750T336 741T369 727T404 706V645Z" />
<glyph unicode="&#x2122;" glyph-name="trademark" horiz-adv-x="714" d="M257 697H179V365H129V697H50V742H257V697ZM646 365H600V645L516 370H463L377 645V365H331V742H401L490 441L578 742H646V365Z" />
</font>
</defs>
</svg>
